# Blender v2.82 (sub 7) OBJ File: ''
# www.blender.org
o Plane
v -51.506042 0.000000 -8.946894
v -39.347771 0.000000 -8.946894
v -51.506042 0.000000 -21.105164
v -39.347771 0.000000 -21.105164
v -21.116568 0.000000 -8.946894
v -21.116568 0.000000 -21.105164
v -9.108931 0.000000 -8.946894
v -9.108931 0.000000 -21.105164
v -21.116568 0.000000 -39.327732
v -9.108931 0.000000 -39.327732
v -21.116568 0.000000 -51.454365
v -9.108931 0.000000 -51.454365
v -39.272537 0.000000 -39.327732
v -39.272537 0.000000 -51.454365
v -51.415890 0.000000 -39.327732
v -51.415890 0.000000 -51.454365
v -39.347771 0.000000 39.295128
v -51.506042 0.000000 39.295128
v -39.347771 0.000000 51.453392
v -51.506042 0.000000 51.453392
v -51.506042 0.000000 9.163874
v -39.347771 0.000000 9.163874
v -21.116568 0.000000 9.163874
v -9.108931 0.000000 9.163874
v 8.960947 0.000000 -8.946894
v 21.119219 0.000000 -8.946894
v 8.960947 0.000000 -21.105164
v 21.119219 0.000000 -21.105164
v 39.350422 0.000000 -8.946894
v 39.350422 0.000000 -21.105164
v 51.358059 0.000000 -8.946894
v 51.358059 0.000000 -21.105164
v 39.350422 0.000000 -39.327732
v 51.358059 0.000000 -39.327732
v 39.350422 0.000000 -51.454365
v 51.358059 0.000000 -51.454365
v 21.194454 0.000000 -39.327732
v 21.194454 0.000000 -51.454365
v 9.051105 0.000000 -39.327732
v 9.051105 0.000000 -51.454365
v -21.116568 0.000000 39.295128
v -21.116568 0.000000 51.453392
v -9.108931 0.000000 51.453392
v 8.960947 0.000000 9.163874
v 21.119219 0.000000 9.163874
v 39.350422 0.000000 9.163874
v 51.358059 0.000000 9.163874
v -9.108931 0.000000 39.295128
v -21.116568 0.000000 21.072559
v -9.108931 0.000000 21.072559
v -39.272537 0.000000 21.072559
v -51.415890 0.000000 21.072559
v 8.960947 0.000000 51.453392
v 21.119219 0.000000 51.453392
v 8.960947 0.000000 39.295128
v 21.119219 0.000000 39.295128
v 39.350422 0.000000 51.453392
v 39.350422 0.000000 39.295128
v 51.358059 0.000000 51.453392
v 51.358059 0.000000 39.295128
v 39.350422 0.000000 21.072559
v 51.358059 0.000000 21.072559
v 21.194454 0.000000 21.072559
v 9.051105 0.000000 21.072559
vt 0.586919 0.881352
vt 0.705042 0.999476
vt 0.586919 0.999476
vt 0.705042 0.704227
vt 0.705042 0.881352
vt 0.586919 0.704227
vt 0.705042 0.587567
vt 0.882084 0.704227
vt 0.882084 0.587567
vt 0.999900 0.704227
vt 0.882084 0.880621
vt 0.999900 0.880621
vt 0.882084 0.998600
vt 0.000100 0.881352
vt 0.118224 0.704227
vt 0.118224 0.881352
vt 0.118224 0.999476
vt 0.000100 0.999476
vt 0.410964 0.587567
vt 0.586919 0.587567
vt 0.410964 0.881352
vt 0.586919 0.293885
vt 0.705042 0.412009
vt 0.586919 0.412009
vt 0.705042 0.116760
vt 0.705042 0.293885
vt 0.586919 0.116760
vt 0.705042 0.000100
vt 0.882084 0.116760
vt 0.882084 0.000100
vt 0.999900 0.116760
vt 0.882084 0.293154
vt 0.999900 0.293154
vt 0.882084 0.411133
vt 0.999900 0.411133
vt 0.410964 0.000100
vt 0.586919 0.000100
vt 0.410964 0.293885
vt 0.000100 0.704227
vt 0.118224 0.587567
vt 0.295265 0.704227
vt 0.295265 0.587567
vt 0.410964 0.704227
vt 0.295265 0.880621
vt 0.295265 0.998600
vt 0.000100 0.293885
vt 0.118224 0.412009
vt 0.000100 0.412009
vt 0.118224 0.116760
vt 0.118224 0.293885
vt 0.000100 0.116760
vt 0.118224 0.000100
vt 0.295265 0.116760
vt 0.295265 0.000100
vt 0.410964 0.116760
vt 0.295265 0.293154
vt 0.295265 0.411133
vt 0.410964 0.412009
vt 0.000100 0.587567
vt 0.999900 0.587567
vt 0.999900 0.998600
vt 0.410964 0.999476
vt 0.999900 0.000100
vt 0.000100 0.000100
vn 0.0000 1.0000 0.0000
s off
f 2/1/1 3/2/1 1/3/1
f 2/1/1 6/4/1 4/5/1
f 5/6/1 8/7/1 6/4/1
f 8/7/1 9/8/1 6/4/1
f 10/9/1 11/10/1 9/8/1
f 11/10/1 13/11/1 9/8/1
f 14/12/1 15/13/1 13/11/1
f 15/13/1 4/5/1 13/11/1
f 19/14/1 41/15/1 17/16/1
f 19/14/1 18/17/1 20/18/1
f 5/6/1 24/19/1 7/20/1
f 1/3/1 22/21/1 2/1/1
f 26/22/1 27/23/1 25/24/1
f 26/22/1 30/25/1 28/26/1
f 29/27/1 32/28/1 30/25/1
f 32/28/1 33/29/1 30/25/1
f 34/30/1 35/31/1 33/29/1
f 35/31/1 37/32/1 33/29/1
f 38/33/1 39/34/1 37/32/1
f 39/34/1 28/26/1 37/32/1
f 40/35/1 10/9/1 39/34/1
f 27/23/1 7/20/1 25/24/1
f 29/27/1 47/36/1 31/37/1
f 25/24/1 45/38/1 26/22/1
f 42/39/1 48/40/1 41/15/1
f 48/40/1 49/41/1 41/15/1
f 50/42/1 23/43/1 49/41/1
f 23/43/1 51/44/1 49/41/1
f 22/21/1 52/45/1 51/44/1
f 52/45/1 17/16/1 51/44/1
f 54/46/1 55/47/1 53/48/1
f 54/46/1 58/49/1 56/50/1
f 57/51/1 60/52/1 58/49/1
f 60/52/1 61/53/1 58/49/1
f 62/54/1 46/55/1 61/53/1
f 46/55/1 63/56/1 61/53/1
f 45/38/1 64/57/1 63/56/1
f 64/57/1 56/50/1 63/56/1
f 44/58/1 50/42/1 64/57/1
f 55/47/1 43/59/1 53/48/1
f 2/1/1 4/5/1 3/2/1
f 2/1/1 5/6/1 6/4/1
f 5/6/1 7/20/1 8/7/1
f 8/7/1 10/9/1 9/8/1
f 10/9/1 12/60/1 11/10/1
f 11/10/1 14/12/1 13/11/1
f 14/12/1 16/61/1 15/13/1
f 15/13/1 3/2/1 4/5/1
f 19/14/1 42/39/1 41/15/1
f 19/14/1 17/16/1 18/17/1
f 5/6/1 23/43/1 24/19/1
f 1/3/1 21/62/1 22/21/1
f 26/22/1 28/26/1 27/23/1
f 26/22/1 29/27/1 30/25/1
f 29/27/1 31/37/1 32/28/1
f 32/28/1 34/30/1 33/29/1
f 34/30/1 36/63/1 35/31/1
f 35/31/1 38/33/1 37/32/1
f 38/33/1 40/35/1 39/34/1
f 39/34/1 27/23/1 28/26/1
f 40/35/1 12/60/1 10/9/1
f 27/23/1 8/7/1 7/20/1
f 29/27/1 46/55/1 47/36/1
f 25/24/1 44/58/1 45/38/1
f 42/39/1 43/59/1 48/40/1
f 48/40/1 50/42/1 49/41/1
f 50/42/1 24/19/1 23/43/1
f 23/43/1 22/21/1 51/44/1
f 22/21/1 21/62/1 52/45/1
f 52/45/1 18/17/1 17/16/1
f 54/46/1 56/50/1 55/47/1
f 54/46/1 57/51/1 58/49/1
f 57/51/1 59/64/1 60/52/1
f 60/52/1 62/54/1 61/53/1
f 62/54/1 47/36/1 46/55/1
f 46/55/1 45/38/1 63/56/1
f 45/38/1 44/58/1 64/57/1
f 64/57/1 55/47/1 56/50/1
f 44/58/1 24/19/1 50/42/1
f 55/47/1 48/40/1 43/59/1
