# Blender v2.82 (sub 7) OBJ File: 'RAT.blend'
# www.blender.org
o Cube_Cube.001
v 1.000000 -0.449310 4.161968
v 0.888476 0.009887 3.251143
v 0.867023 0.362344 -3.314615
v 0.785367 1.094532 -3.314615
v 1.446245 0.120766 -1.605071
v 1.446245 0.120766 1.605071
v 1.611642 -1.362299 1.605071
v 1.611642 -1.362299 -1.605071
v 1.170387 0.243857 -4.709175
v 1.024640 1.224450 -4.709175
v 0.909692 0.594526 -5.814246
v 0.832502 1.113859 -5.814246
v 0.713592 0.784885 -6.962708
v 0.673619 1.053826 -6.962708
v 0.481380 -0.594459 4.095071
v 0.459459 -0.315501 4.189320
v 0.329922 -1.577872 8.432945
v 0.320435 -1.445739 8.440178
v 0.385743 -1.369176 7.328794
v 0.410315 -1.192527 6.238589
v 0.434887 -0.762486 5.211188
v 0.400458 -1.575161 7.316263
v 0.427432 -1.414286 6.149565
v 0.454406 -1.014547 5.108330
v 2.194287 -1.003865 4.178062
v 1.393036 -0.245946 3.246798
v 1.950805 -0.125180 1.605071
v 2.805929 -1.362299 2.461619
v 1.000000 -2.204211 3.238581
v 1.611642 -2.570519 1.605071
v 2.194287 -2.208220 3.246798
v 2.805929 -2.570519 1.605071
v 1.784818 -0.898443 -3.065593
v 1.703162 0.008273 -3.314615
v 1.948833 -0.385362 -1.605071
v 2.529437 -1.868427 -1.605071
v 0.867023 -2.089264 -3.314615
v 1.611642 -2.287069 -1.605071
v 1.784818 -2.124237 -3.314615
v 2.529437 -2.329467 -1.605071
v 1.446245 0.120766 -0.000000
v 1.611642 -1.362299 -0.000000
v 0.000000 1.007607 3.274885
v 0.000000 1.826719 -3.314615
v -1.000000 -0.448964 4.162353
v -0.888476 0.009851 3.251127
v -0.867023 0.362344 -3.314615
v -0.785367 1.094532 -3.314615
v 0.000000 0.362344 -3.314615
v 0.000000 -0.953045 3.197230
v -0.000000 1.603831 1.605071
v -0.000000 1.603831 -1.605071
v -1.446245 0.120766 -1.605071
v -1.446245 0.120766 1.605071
v -1.611642 -1.362299 1.605071
v -1.611642 -1.362299 -1.605071
v 0.000000 -1.362299 -1.605071
v 0.000000 -1.362299 1.605071
v 0.000000 2.245214 -4.709175
v -1.170387 0.243857 -4.709175
v -1.024640 1.224450 -4.709175
v 0.000000 0.243857 -4.709175
v 0.000000 1.654467 -5.814246
v -0.909692 0.594526 -5.814246
v -0.832502 1.113859 -5.814246
v 0.000000 0.594526 -5.814246
v 0.000000 1.333784 -6.962708
v -0.713592 0.784885 -6.962708
v -0.673619 1.053826 -6.962708
v 0.000000 0.784885 -6.962708
v -0.000000 -0.050668 4.299050
v -0.481380 -0.594403 4.095140
v -0.459459 -0.315440 4.189340
v -0.000000 -0.616827 4.068018
v -0.000000 -1.313606 8.447411
v -0.329922 -1.577872 8.432945
v -0.320435 -1.445739 8.440178
v -0.000000 -1.577872 8.432945
v -0.000000 -1.536614 9.494239
v -0.385743 -1.369176 7.328794
v -0.410315 -1.192527 6.238589
v -0.434887 -0.762486 5.211188
v -0.400458 -1.575161 7.316263
v -0.427432 -1.414286 6.149565
v -0.454406 -1.014547 5.108330
v -0.000000 -1.571574 7.318208
v -0.000000 -1.412267 6.148642
v -0.000000 -1.014547 5.108330
v -0.000000 -0.510425 5.314047
v -0.000000 -0.970181 6.329043
v -0.000000 -1.161694 7.340644
v -2.194287 -1.003674 4.178883
v -1.393036 -0.245946 3.246798
v -1.950805 -0.125180 1.605071
v -2.805929 -1.362299 2.461618
v -1.000000 -2.202958 3.236012
v -1.611642 -2.570519 1.605071
v -2.194287 -2.208220 3.246798
v -2.805929 -2.570519 1.605071
v -1.784818 -0.898443 -3.065593
v -1.703162 0.008273 -3.314615
v -1.948833 -0.385362 -1.605071
v -2.529437 -1.868427 -1.605071
v -0.867023 -2.089264 -3.314615
v -1.611642 -2.287069 -1.605071
v -1.784818 -2.124237 -3.314615
v -2.529437 -2.329467 -1.605071
v 0.000000 1.603831 -0.000000
v -1.446245 0.120766 -0.000000
v -1.611642 -1.362299 -0.000000
v 0.000000 -1.362299 -0.000000
v -2.562584 -2.272119 2.562584
v 2.562584 -2.272119 3.164078
v -2.562584 -2.272119 -2.562584
v 2.562584 -2.272119 -3.164078
v 0.000000 -2.272119 5.901268
v 0.000000 -2.272119 -5.901268
v -3.112399 -2.272119 0.000000
v 3.112399 -2.272119 0.000000
v 0.000000 -2.272119 0.000000
vt 0.257505 0.723947
vt 0.379480 0.889661
vt 0.272473 0.849035
vt 0.150381 0.726889
vt 0.099180 0.884237
vt 0.038727 0.761330
vt 0.245173 0.830946
vt 0.222742 0.746804
vt 0.234443 0.483030
vt 0.189742 0.406513
vt 0.259937 0.268771
vt 0.252385 0.602470
vt 0.138744 0.614181
vt 0.169064 0.311586
vt 0.017680 0.491805
vt 0.075838 0.305907
vt 0.014518 0.626482
vt 0.413791 0.429398
vt 0.435109 0.585511
vt 0.376901 0.243884
vt 0.225540 0.122298
vt 0.375264 0.089619
vt 0.052075 0.163736
vt 0.145581 0.151439
vt 0.461843 0.528339
vt 0.788260 0.539017
vt 0.652288 0.761959
vt 0.127016 0.054397
vt 0.170808 0.031995
vt 0.648836 0.386201
vt 0.945319 0.346454
vt 0.799149 0.257374
vt 0.818071 0.290137
vt 0.684389 0.051406
vt 0.603869 0.267270
vt 0.917790 0.199052
vt 0.202743 0.877176
vt 0.216849 0.925022
vt 0.188256 0.915967
vt 0.172857 0.944770
vt 0.255209 0.965235
vt 0.778228 0.720371
vt 0.812606 0.677283
vt 0.787426 0.725799
vt 0.806505 0.734658
vt 0.828236 0.681705
vt 0.759050 0.707754
vt 0.807104 0.673858
vt 0.837063 0.627950
vt 0.794359 0.662411
vt 0.688144 0.872625
vt 0.695038 0.807323
vt 0.718338 0.821578
vt 0.727008 0.757368
vt 0.748465 0.770561
vt 0.702244 0.880853
vt 0.752371 0.840070
vt 0.724989 0.892690
vt 0.759467 0.776962
vt 0.779734 0.787408
vt 0.730892 0.828900
vt 0.217375 0.806125
vt 0.208989 0.815296
vt 0.847610 0.852233
vt 0.740799 0.923723
vt 0.741324 0.750314
vt 0.825471 0.730497
vt 0.819620 0.762169
vt 0.833062 0.763416
vt 0.854399 0.741415
vt 0.939673 0.684855
vt 0.845894 0.646024
vt 0.885040 0.897044
vt 0.733814 0.859844
vt 0.827192 0.812748
vt 0.165643 0.430556
vt 0.773194 0.758482
vt 0.659042 0.866290
vt 0.841386 0.825166
vt 0.974555 0.795990
vt 0.834000 0.816886
vt 0.833503 0.821947
vt 0.828063 0.816729
vt 0.129319 0.502496
vt 0.257505 0.723947
vt 0.435109 0.732013
vt 0.150381 0.726889
vt 0.245173 0.830946
vt 0.272473 0.849035
vt 0.189742 0.406513
vt 0.234443 0.483030
vt 0.259937 0.268771
vt 0.252385 0.602470
vt 0.138744 0.614181
vt 0.169064 0.311586
vt 0.225540 0.122298
vt 0.461843 0.528339
vt 0.127016 0.054397
vt 0.145581 0.151439
vt 0.648836 0.386201
vt 0.799149 0.257374
vt 0.603869 0.267270
vt 0.818071 0.290137
vt 0.202743 0.877176
vt 0.216849 0.925022
vt 0.188256 0.915967
vt 0.812606 0.677283
vt 0.778228 0.720371
vt 0.787426 0.725799
vt 0.807104 0.673858
vt 0.688144 0.872625
vt 0.663062 0.857305
vt 0.718338 0.821578
vt 0.748465 0.770561
vt 0.702244 0.880853
vt 0.759467 0.776962
vt 0.730892 0.828900
vt 0.217375 0.806125
vt 0.222742 0.746804
vt 0.847610 0.852233
vt 0.740799 0.923723
vt 0.762899 0.975439
vt 0.741324 0.750314
vt 0.825471 0.730497
vt 0.845894 0.646024
vt 0.833062 0.763416
vt 0.854399 0.741415
vt 0.819620 0.762169
vt 0.939673 0.684855
vt 0.885040 0.897044
vt 0.733814 0.859844
vt 0.857027 0.987215
vt 0.773194 0.758482
vt 0.659042 0.866290
vt 0.841386 0.825166
vt 0.974555 0.795990
vt 0.834000 0.816886
vt 0.833503 0.821947
vt 0.827192 0.812748
vt 0.129319 0.502496
vt 0.506249 0.084191
vt 0.449989 0.027623
vt 0.506403 0.027777
vt 0.562816 0.027931
vt 0.562662 0.084345
vt 0.562508 0.140758
vt 0.449681 0.140450
vt 0.506094 0.140604
vt 0.190608 0.469952
vt 0.045359 0.059667
vt 0.762899 0.975439
vt 0.857027 0.987215
vt 0.190608 0.469952
vt 0.170808 0.031995
vt 0.208989 0.815296
vt 0.165643 0.430556
vt 0.828063 0.816729
vt 0.449835 0.084037
vn 0.7189 0.6334 0.2863
vn 0.0000 -0.9685 0.2490
vn 0.4284 0.8788 0.2102
vn 0.7619 0.6437 0.0721
vn 0.9938 0.1108 0.0000
vn 0.0000 -0.7040 -0.7102
vn 0.0000 -1.0000 0.0000
vn 0.7108 0.6931 0.1200
vn 0.7159 0.6982 0.0000
vn 0.6903 0.6930 0.2080
vn 0.9780 0.1091 0.1780
vn 0.0000 -0.9964 0.0847
vn 0.6600 0.6625 -0.3542
vn 0.9723 0.1445 -0.1835
vn 0.0000 -0.9532 -0.3025
vn 0.5303 0.8166 -0.2280
vn 0.9790 0.1455 -0.1430
vn 0.0000 -0.9865 -0.1635
vn 0.0000 0.0000 -1.0000
vn -0.0319 -0.3222 0.9461
vn 0.0231 -0.9326 0.3601
vn 0.5211 0.7041 0.4825
vn 0.9957 0.0673 0.0631
vn -0.0000 -1.0000 -0.0056
vn 0.4740 0.8761 0.0882
vn 0.9542 0.0524 0.2946
vn -0.0000 -0.9992 0.0388
vn 0.3778 0.9056 0.1929
vn 0.5303 0.7720 0.3504
vn 0.5049 0.7919 0.3435
vn 0.4964 0.8551 0.1497
vn 0.0633 -0.9322 -0.3564
vn -0.0036 -0.9341 -0.3571
vn -0.0095 -0.9908 -0.1350
vn 0.9971 0.0568 0.0501
vn 0.9972 0.0576 0.0480
vn 0.9974 0.0642 0.0319
vn 0.6419 0.7637 0.0693
vn 0.4234 0.8287 0.3660
vn 0.5755 -0.1578 -0.8024
vn 0.8794 -0.2753 0.3884
vn -0.0048 -0.9761 0.2171
vn -0.9488 0.1471 -0.2795
vn -0.0075 -0.6117 0.7911
vn 0.9070 0.3551 -0.2266
vn -0.1155 -0.2727 -0.9551
vn -0.0000 0.0000 1.0000
vn 0.2619 0.0000 -0.9651
vn -0.0459 -0.9940 -0.0993
vn 0.9090 0.0830 -0.4084
vn -0.9168 0.0000 0.3993
vn -0.6947 0.6774 0.2419
vn -0.4436 0.8715 0.2090
vn -0.7619 0.6437 0.0721
vn -0.9938 0.1108 0.0000
vn -0.6788 0.7281 0.0949
vn -0.7159 0.6982 0.0000
vn -0.6705 0.7192 0.1820
vn -0.9780 0.1091 0.1780
vn -0.6600 0.6625 -0.3542
vn -0.9723 0.1445 -0.1835
vn -0.5303 0.8166 -0.2280
vn -0.9790 0.1455 -0.1430
vn -0.2378 0.8789 0.4135
vn -0.2310 -0.9399 0.2516
vn -0.6248 0.5430 0.5611
vn -0.9957 0.0673 0.0631
vn 0.0090 -1.0000 -0.0030
vn -0.4740 0.8761 0.0882
vn -0.9542 0.0524 0.2946
vn -0.3778 0.9056 0.1929
vn -0.5291 0.7730 0.3501
vn -0.5303 0.7723 0.3498
vn -0.4964 0.8551 0.1497
vn -0.0635 -0.9322 -0.3564
vn 0.0000 -0.9336 -0.3584
vn 0.0044 -0.9906 -0.1367
vn -0.9968 0.0612 0.0507
vn -0.9972 0.0576 0.0480
vn -0.9974 0.0642 0.0319
vn -0.6864 0.6701 0.2825
vn -0.4234 0.8289 0.3656
vn -0.8810 -0.2896 0.3742
vn 0.0063 -0.9760 0.2176
vn -0.5050 0.4992 -0.7041
vn 0.9487 0.1477 -0.2796
vn 0.2234 -0.4552 0.8619
vn -0.9901 0.0535 -0.1300
vn -0.2619 0.0000 -0.9651
vn 0.0379 -0.9944 -0.0986
vn -0.9090 0.0830 -0.4084
vn 0.9168 0.0000 0.3993
vn 0.0000 1.0000 0.0000
vn 0.6947 0.6774 0.2419
vn 0.1198 -0.9256 0.3591
vn 0.4437 0.8715 0.2090
vn 0.7083 0.7033 0.0602
vn 0.6788 0.7281 0.0949
vn 0.6705 0.7192 0.1820
vn 0.9694 0.1441 0.1986
vn 0.5361 0.8256 -0.1758
vn 0.3818 0.9187 -0.1008
vn 0.2384 0.8786 0.4138
vn 0.2306 -0.9399 0.2518
vn 0.6248 0.5430 0.5611
vn 0.9957 0.0680 0.0632
vn -0.0090 -1.0000 -0.0030
vn 0.3806 0.9161 0.1257
vn 0.5291 0.7729 0.3501
vn 0.5303 0.7723 0.3498
vn 0.4712 0.8666 0.1641
vn 0.0000 -0.9238 -0.3830
vn -0.0044 -0.9906 -0.1367
vn 0.9968 0.0612 0.0507
vn 0.9972 0.0577 0.0480
vn 0.9970 0.0692 0.0337
vn 0.6864 0.6701 0.2825
vn 0.3896 0.8494 0.3561
vn 0.8809 -0.2895 0.3744
vn 0.0000 -0.9765 0.2155
vn 0.5050 0.4992 -0.7041
vn -0.9365 0.0000 -0.3507
vn -0.2224 -0.4540 0.8628
vn 0.9901 0.0535 -0.1300
vn 0.0076 0.1991 -0.9800
vn -0.0379 -0.9944 -0.0986
vn 0.9168 0.0000 -0.3993
vn -0.7189 0.6334 0.2863
vn -0.1199 -0.9255 0.3592
vn -0.4284 0.8788 0.2102
vn -0.7083 0.7033 0.0602
vn -0.7108 0.6931 0.1200
vn -0.6903 0.6930 0.2080
vn -0.9694 0.1441 0.1986
vn -0.5361 0.8256 -0.1758
vn -0.3818 0.9187 -0.1008
vn 0.0323 -0.3220 0.9462
vn -0.0232 -0.9326 0.3601
vn -0.5210 0.7042 0.4824
vn -0.9957 0.0680 0.0632
vn -0.3806 0.9161 0.1257
vn -0.5303 0.7720 0.3505
vn -0.5049 0.7919 0.3435
vn -0.4712 0.8666 0.1641
vn 0.0000 -0.9237 -0.3830
vn 0.0036 -0.9341 -0.3571
vn 0.0095 -0.9908 -0.1350
vn -0.9971 0.0568 0.0501
vn -0.9972 0.0577 0.0480
vn -0.9970 0.0692 0.0337
vn -0.6418 0.7637 0.0691
vn -0.3897 0.8495 0.3556
vn -0.5755 -0.1578 -0.8024
vn -0.8794 -0.2753 0.3884
vn 0.9363 0.0000 -0.3511
vn 0.0098 -0.6120 0.7908
vn -0.9070 0.3551 -0.2266
vn 0.1155 -0.2727 -0.9551
vn -0.0076 0.1991 -0.9800
vn 0.0459 -0.9940 -0.0993
vn -0.9168 0.0000 -0.3993
s off
f 6/1/1 43/2/1 2/3/1
f 7/4/2 50/5/2 58/6/2
f 6/1/3 26/7/3 27/8/3
f 5/9/4 34/10/4 4/11/4
f 41/12/5 7/4/5 42/13/5
f 3/14/6 57/15/6 49/16/6
f 42/13/7 58/6/7 111/17/7
f 4/11/8 52/18/8 5/9/8
f 108/19/9 6/1/9 41/12/9
f 44/20/10 10/21/10 59/22/10
f 3/14/11 10/21/11 4/11/11
f 3/14/12 62/23/12 9/24/12
f 10/25/13 63/26/13 59/27/13
f 10/21/14 11/28/14 12/29/14
f 62/23/15 11/28/15 9/24/15
f 12/30/16 67/31/16 63/26/16
f 12/30/17 13/32/17 14/33/17
f 66/34/18 13/32/18 11/35/18
f 14/33/19 70/36/19 67/31/19
f 1/37/20 16/38/20 15/39/20
f 50/5/21 15/39/21 74/40/21
f 2/3/22 71/41/22 16/38/22
f 19/42/23 17/43/23 22/44/23
f 86/45/24 17/43/24 78/46/24
f 91/47/25 18/48/25 19/42/25
f 17/43/26 18/48/26 79/49/26
f 78/46/27 17/43/27 79/49/27
f 18/48/28 75/50/28 79/49/28
f 16/51/29 89/52/29 21/53/29
f 21/53/30 90/54/30 20/55/30
f 90/54/31 19/42/31 20/55/31
f 15/56/32 88/57/32 74/58/32
f 88/57/33 23/59/33 87/60/33
f 87/60/34 22/44/34 86/45/34
f 15/56/35 21/53/35 24/61/35
f 21/53/36 23/59/36 24/61/36
f 20/55/37 22/44/37 23/59/37
f 28/62/38 26/7/38 25/63/38
f 1/37/39 26/7/39 2/3/39
f 7/64/40 27/65/40 28/66/40
f 28/66/41 31/67/41 32/68/41
f 30/69/42 31/67/42 29/70/42
f 7/64/19 32/68/19 30/69/19
f 7/64/43 29/70/43 1/71/43
f 25/72/44 29/70/44 31/67/44
f 33/73/45 35/74/45 36/75/45
f 3/14/46 34/10/46 33/76/46
f 8/77/47 35/74/47 5/78/47
f 33/73/48 37/79/48 3/80/48
f 38/81/49 39/82/49 40/83/49
f 36/75/50 39/82/50 33/73/50
f 36/75/47 38/81/47 40/83/47
f 8/77/51 37/79/51 38/81/51
f 52/18/9 41/12/9 5/9/9
f 8/84/7 111/17/7 57/15/7
f 5/9/5 42/13/5 8/84/5
f 54/85/52 43/2/52 51/86/52
f 50/5/2 55/87/2 58/6/2
f 54/85/53 93/88/53 46/89/53
f 101/90/54 53/91/54 48/92/54
f 55/87/55 109/93/55 110/94/55
f 57/15/6 47/95/6 49/16/6
f 58/6/7 110/94/7 111/17/7
f 48/92/56 52/18/56 44/20/56
f 54/85/57 108/19/57 109/93/57
f 44/20/58 61/96/58 48/92/58
f 61/96/59 47/95/59 48/92/59
f 47/95/12 62/23/12 49/16/12
f 63/26/60 61/97/60 59/27/60
f 61/96/61 64/98/61 60/99/61
f 64/98/15 62/23/15 60/99/15
f 67/31/62 65/100/62 63/26/62
f 65/100/63 68/101/63 64/102/63
f 68/101/18 66/34/18 64/102/18
f 70/36/19 69/103/19 67/31/19
f 45/104/64 73/105/64 46/89/64
f 50/5/65 72/106/65 45/104/65
f 46/89/66 71/41/66 43/2/66
f 76/107/67 80/108/67 83/109/67
f 86/45/68 76/107/68 83/109/68
f 77/110/69 91/47/69 80/108/69
f 76/107/70 79/49/70 77/110/70
f 78/46/27 79/49/27 76/107/27
f 77/110/71 79/49/71 75/50/71
f 73/111/72 89/52/72 71/112/72
f 82/113/73 90/54/73 89/52/73
f 80/108/74 90/54/74 81/114/74
f 88/57/75 72/115/75 74/58/75
f 88/57/76 84/116/76 85/117/76
f 87/60/77 83/109/77 84/116/77
f 72/115/78 82/113/78 73/111/78
f 84/116/79 82/113/79 85/117/79
f 83/109/80 81/114/80 84/116/80
f 95/118/81 93/88/81 94/119/81
f 93/88/82 45/104/82 46/89/82
f 55/120/19 94/121/19 54/122/19
f 95/123/83 98/124/83 92/125/83
f 98/124/84 97/126/84 96/127/84
f 55/120/85 99/128/85 95/123/85
f 96/127/86 55/120/86 45/129/86
f 92/125/87 96/127/87 45/129/87
f 100/130/88 102/131/88 101/132/88
f 47/95/19 101/90/19 48/92/19
f 102/131/47 56/133/47 53/134/47
f 104/135/89 100/130/89 47/136/89
f 105/137/90 106/138/90 104/135/90
f 106/138/91 103/139/91 100/130/91
f 103/139/47 105/137/47 56/133/47
f 56/133/92 104/135/92 47/136/92
f 109/93/57 52/18/57 53/91/57
f 111/17/7 56/140/7 57/15/7
f 110/94/55 53/91/55 56/140/55
f 120/141/93 115/142/93 117/143/93
f 120/141/93 114/144/93 118/145/93
f 112/146/93 120/141/93 118/145/93
f 113/147/93 120/141/93 116/148/93
f 6/1/94 51/86/94 43/2/94
f 7/4/95 1/37/95 50/5/95
f 6/1/96 2/3/96 26/7/96
f 5/9/97 35/149/97 34/10/97
f 41/12/5 6/1/5 7/4/5
f 3/14/6 8/84/6 57/15/6
f 42/13/7 7/4/7 58/6/7
f 4/11/98 44/20/98 52/18/98
f 108/19/9 51/86/9 6/1/9
f 44/20/99 4/11/99 10/21/99
f 3/14/100 9/24/100 10/21/100
f 3/14/12 49/16/12 62/23/12
f 10/25/101 12/30/101 63/26/101
f 10/21/14 9/24/14 11/28/14
f 62/23/15 66/150/15 11/28/15
f 12/30/102 14/33/102 67/31/102
f 12/30/17 11/35/17 13/32/17
f 66/34/18 70/36/18 13/32/18
f 14/33/19 13/32/19 70/36/19
f 1/37/103 2/3/103 16/38/103
f 50/5/104 1/37/104 15/39/104
f 2/3/105 43/2/105 71/41/105
f 19/42/106 18/48/106 17/43/106
f 86/45/107 22/44/107 17/43/107
f 91/47/108 75/50/108 18/48/108
f 16/51/109 71/112/109 89/52/109
f 21/53/110 89/52/110 90/54/110
f 90/54/111 91/47/111 19/42/111
f 15/56/112 24/61/112 88/57/112
f 88/57/76 24/61/76 23/59/76
f 87/60/113 23/59/113 22/44/113
f 15/56/114 16/51/114 21/53/114
f 21/53/115 20/55/115 23/59/115
f 20/55/116 19/42/116 22/44/116
f 28/62/117 27/8/117 26/7/117
f 1/37/118 25/63/118 26/7/118
f 7/64/19 6/151/19 27/65/19
f 28/66/119 25/72/119 31/67/119
f 30/69/120 32/68/120 31/67/120
f 7/64/121 28/66/121 32/68/121
f 7/64/122 30/69/122 29/70/122
f 25/72/123 1/71/123 29/70/123
f 33/73/124 34/152/124 35/74/124
f 3/14/19 4/11/19 34/10/19
f 8/77/47 36/75/47 35/74/47
f 33/73/125 39/82/125 37/79/125
f 38/81/126 37/79/126 39/82/126
f 36/75/127 40/83/127 39/82/127
f 36/75/47 8/77/47 38/81/47
f 8/77/51 3/80/51 37/79/51
f 52/18/9 108/19/9 41/12/9
f 8/84/7 42/13/7 111/17/7
f 5/9/5 41/12/5 42/13/5
f 54/85/128 46/89/128 43/2/128
f 50/5/129 45/104/129 55/87/129
f 54/85/130 94/119/130 93/88/130
f 101/90/131 102/153/131 53/91/131
f 55/87/55 54/85/55 109/93/55
f 57/15/6 56/140/6 47/95/6
f 58/6/7 55/87/7 110/94/7
f 48/92/132 53/91/132 52/18/132
f 54/85/57 51/86/57 108/19/57
f 44/20/133 59/22/133 61/96/133
f 61/96/134 60/99/134 47/95/134
f 47/95/12 60/99/12 62/23/12
f 63/26/135 65/100/135 61/97/135
f 61/96/61 65/154/61 64/98/61
f 64/98/15 66/150/15 62/23/15
f 67/31/136 69/103/136 65/100/136
f 65/100/63 69/103/63 68/101/63
f 68/101/18 70/36/18 66/34/18
f 70/36/19 68/101/19 69/103/19
f 45/104/137 72/106/137 73/105/137
f 50/5/138 74/40/138 72/106/138
f 46/89/139 73/105/139 71/41/139
f 76/107/140 77/110/140 80/108/140
f 86/45/24 78/46/24 76/107/24
f 77/110/141 75/50/141 91/47/141
f 73/111/142 82/113/142 89/52/142
f 82/113/143 81/114/143 90/54/143
f 80/108/144 91/47/144 90/54/144
f 88/57/145 85/117/145 72/115/145
f 88/57/146 87/60/146 84/116/146
f 87/60/147 86/45/147 83/109/147
f 72/115/148 85/117/148 82/113/148
f 84/116/149 81/114/149 82/113/149
f 83/109/150 80/108/150 81/114/150
f 95/118/151 92/155/151 93/88/151
f 93/88/152 92/155/152 45/104/152
f 55/120/153 95/123/153 94/121/153
f 95/123/154 99/128/154 98/124/154
f 98/124/120 99/128/120 97/126/120
f 55/120/19 97/126/19 99/128/19
f 96/127/155 97/126/155 55/120/155
f 92/125/156 98/124/156 96/127/156
f 100/130/157 103/139/157 102/131/157
f 47/95/158 100/156/158 101/90/158
f 102/131/47 103/139/47 56/133/47
f 104/135/159 106/138/159 100/130/159
f 105/137/160 107/157/160 106/138/160
f 106/138/161 107/157/161 103/139/161
f 103/139/47 107/157/47 105/137/47
f 56/133/92 105/137/92 104/135/92
f 109/93/57 108/19/57 52/18/57
f 111/17/7 110/94/7 56/140/7
f 110/94/55 109/93/55 53/91/55
f 120/141/93 119/158/93 115/142/93
f 120/141/93 117/143/93 114/144/93
f 112/146/93 116/148/93 120/141/93
f 113/147/93 119/158/93 120/141/93
