# Blender v2.82 (sub 7) OBJ File: ''
# www.blender.org
mtllib switch.mtl
o Cube_Cube.001
v -3.479277 0.781084 3.479277
v -3.479277 14.698194 3.479277
v -3.479277 0.781084 -3.479277
v -3.479277 14.698194 -3.479277
v 3.479277 0.781084 3.479277
v 3.479277 14.698194 3.479277
v 3.479277 0.781084 -3.479277
v 3.479277 14.698194 -3.479277
vt 1.259983 0.997647
vt 0.993291 0.544479
vt 1.258600 0.542105
vt 0.994674 1.000021
vt 0.727982 0.546854
vt 0.729365 1.002396
vt 0.462674 0.549228
vt 0.991908 0.088937
vt 0.730748 1.457938
vt 0.464057 1.004770
vt 0.726599 0.091311
vt 0.996057 1.455563
vn -1.0000 0.0000 0.0000
vn 0.0000 0.0000 -1.0000
vn 1.0000 0.0000 0.0000
vn 0.0000 -1.0000 0.0000
vn 0.0000 1.0000 0.0000
usemtl SwitchBox
s off
f 2/1/1 3/2/1 1/3/1
f 4/4/2 7/5/2 3/2/2
f 8/6/3 5/7/3 7/5/3
f 7/5/4 1/8/4 3/2/4
f 4/4/5 6/9/5 8/6/5
f 2/1/1 4/4/1 3/2/1
f 4/4/2 8/6/2 7/5/2
f 8/6/3 6/10/3 5/7/3
f 7/5/4 5/11/4 1/8/4
f 4/4/5 2/12/5 6/9/5
