# Blender v2.82 (sub 7) OBJ File: 'monsterlvl.blend'
# www.blender.org
mtllib lvl1Collision.mtl
o Collision_lvl2_Plane.003
v 55.268200 52.481281 80.863632
v 95.484398 52.481281 80.751160
v 55.268200 34.776981 41.249977
v 55.268200 34.865017 49.378944
v 55.268200 39.203053 49.374969
v 55.268200 39.291088 57.503925
v 55.268200 43.629128 57.499958
v 55.268200 43.717163 65.628922
v 55.268200 48.055206 65.624947
v 55.268200 48.143242 80.867599
v 95.484398 48.143242 80.755135
v 95.484398 48.055206 65.624939
v 95.484398 43.717171 65.628906
v 95.484398 43.629135 57.499950
v 95.484398 39.291096 57.503925
v 95.484398 39.203060 49.374966
v 95.484398 34.865021 49.378941
v 95.484398 34.776985 41.249977
v 55.307644 52.481281 117.579887
v 95.484398 52.481281 117.579887
v -39.371487 105.552864 81.193817
v -39.371487 105.552864 117.910072
v 55.271584 56.866051 81.193817
v 41.874435 56.954086 81.193817
v 41.878407 61.292122 81.193817
v 33.749439 61.380161 81.193817
v 33.753422 65.718201 81.193817
v 25.624451 65.806236 81.193817
v 25.628428 70.144272 81.193817
v 17.499462 70.232307 81.193817
v 17.503431 74.570343 81.193817
v 9.374466 74.658379 81.193817
v 9.378448 78.996422 81.193817
v 1.249483 79.084457 81.193817
v 1.253452 83.422493 81.193817
v -6.875501 83.510529 81.193817
v -6.871531 87.848572 81.193817
v -15.000495 87.936607 81.193817
v -14.996513 92.274643 81.193817
v -23.125479 92.362679 81.193817
v -23.121510 96.700714 81.193817
v -31.250473 96.788750 81.193817
v -31.246504 101.126793 81.193817
v -39.375458 101.214836 81.193817
v -39.375458 101.214836 117.910072
v -31.246492 101.126793 117.910072
v -31.250462 96.788757 117.910072
v -23.121510 96.700722 117.910072
v -23.125479 92.362686 117.910072
v -14.996513 92.274651 117.910072
v -15.000495 87.936607 117.910072
v -6.871531 87.848572 117.910072
v -6.875501 83.510536 117.910072
v 1.253464 83.422501 117.910072
v 1.249483 79.084465 117.910072
v 9.378448 78.996429 117.910072
v 9.374477 74.658386 117.910072
v 17.503443 74.570351 117.910072
v 17.499462 70.232315 117.910072
v 25.628428 70.144279 117.910072
v 25.624451 65.806236 117.910072
v 33.753422 65.718201 117.910072
v 33.749439 61.380161 117.910072
v 41.878407 61.292122 117.910072
v 41.874435 56.954086 117.910072
v 55.311031 56.866051 117.910072
v -94.664528 105.389450 80.872475
v -94.664528 105.389450 118.829956
v -195.183365 105.389450 118.554115
v -5.644500 105.389450 -19.355499
v -195.183365 105.389450 -169.355499
v -5.644500 105.389450 -169.355499
v -195.183365 105.389450 75.000000
v -5.644500 105.389450 44.140633
v -80.688866 105.389450 -169.355499
v -94.664528 105.389450 44.140633
v -195.183365 105.389450 -19.355499
v -80.688866 105.389450 -19.355499
v -119.513275 105.389450 -169.355499
v -149.863876 105.389450 75.000000
v -149.863876 105.389450 118.554115
v -120.047234 105.389450 -19.355499
v -195.183365 105.389450 -55.521530
v -5.644500 105.389450 -55.521530
v -80.688866 105.389450 -55.521530
v -120.047234 105.389450 -55.521530
v -44.866405 105.389450 -93.839905
v -44.866405 105.389450 -131.277893
v -155.418137 105.389450 -93.839905
v -155.418137 105.389450 -131.277893
v -80.688866 105.389450 -200.000000
v -120.047234 105.389450 -200.000000
vt 1.000000 0.004630
vt 0.000000 0.009259
vt 0.000000 0.004630
vt 1.000000 0.013889
vt 0.000000 0.018519
vt 0.000000 0.013889
vt 0.000000 0.023148
vt 1.000000 0.027778
vt 0.000000 0.027778
vt 1.000000 0.032407
vt 0.000000 0.037037
vt 0.000000 0.032407
vt 0.000000 0.000000
vt 1.000000 0.000000
vt 1.000000 0.000000
vt 1.000000 0.004630
vt 0.000000 0.009259
vt 0.000000 0.004630
vt 1.000000 0.013889
vt 0.000000 0.018519
vt 0.000000 0.013889
vt 0.000000 0.023148
vt 1.000000 0.027778
vt 0.000000 0.027778
vt 1.000000 0.032407
vt 0.000000 0.037037
vt 0.000000 0.032407
vt 1.000000 0.041667
vt 0.000000 0.046296
vt 0.000000 0.041667
vt 1.000000 0.050926
vt 0.000000 0.055556
vt 0.000000 0.050926
vt 1.000000 0.060185
vt 0.000000 0.064815
vt 0.000000 0.060185
vt 0.000000 0.069444
vt 1.000000 0.074074
vt 0.000000 0.074074
vt 1.000000 0.078704
vt 0.000000 0.083333
vt 0.000000 0.078704
vt 1.000000 0.087963
vt 0.000000 0.092593
vt 0.000000 0.087963
vt 1.000000 0.097222
vt 0.000000 0.101852
vt 0.000000 0.097222
vt 1.000000 0.000000
vt 0.000000 0.000000
vt 1.000000 0.000000
vt 0.554900 0.940315
vt 1.000000 1.000000
vt 0.554900 1.000000
vt 0.554900 0.500000
vt 0.277450 0.750000
vt 0.277450 0.500000
vt 0.277450 0.341608
vt 0.554900 0.341608
vt 0.277450 1.000000
vt 0.277450 0.940315
vt 1.000000 0.500000
vt 0.554900 0.750000
vt 0.000000 0.940315
vt 0.000000 0.750000
vt 0.000000 0.500000
vt 0.277450 0.820946
vt 0.000000 0.820946
vt 0.277450 0.880631
vt 0.000000 0.880631
vt 0.554900 0.820946
vt 1.000000 0.820946
vt 0.554900 0.880631
vt 1.000000 0.940315
vt 0.277450 0.000000
vt 0.000000 0.341608
vt 0.000000 0.000000
vt 0.554900 1.000000
vt 0.277450 1.000000
vt 1.000000 0.009259
vt 1.000000 0.018519
vt 1.000000 0.023148
vt 1.000000 0.037037
vt 0.000000 0.000000
vt 1.000000 0.009259
vt 1.000000 0.018519
vt 1.000000 0.023148
vt 1.000000 0.037037
vt 1.000000 0.046296
vt 1.000000 0.055556
vt 1.000000 0.064815
vt 1.000000 0.069444
vt 1.000000 0.083333
vt 1.000000 0.092593
vt 1.000000 0.101852
vt 0.000000 0.000000
vt 1.000000 0.750000
vt 1.000000 0.880631
vt 0.554900 0.000000
vn -0.0000 1.0000 -0.0058
vn -0.0000 0.9999 -0.0108
vn 0.0000 1.0000 0.0000
vn 0.0108 0.9999 0.0000
vn 0.0066 1.0000 0.0000
vn -0.0030 1.0000 0.0000
usemtl None
s off
f 11/1/1 9/2/1 10/3/1
f 13/4/2 7/5/2 8/6/2
f 6/7/2 16/8/2 5/9/2
f 17/10/2 3/11/2 4/12/2
f 1/13/3 20/14/3 2/15/3
f 45/16/4 43/17/4 44/18/4
f 47/19/4 41/20/4 42/21/4
f 40/22/4 50/23/4 39/24/4
f 51/25/4 37/26/4 38/27/4
f 53/28/4 35/29/4 36/30/4
f 55/31/4 33/32/4 34/33/4
f 57/34/4 31/35/4 32/36/4
f 30/37/4 60/38/4 29/39/4
f 61/40/4 27/41/4 28/42/4
f 63/43/4 25/44/4 26/45/4
f 65/46/5 23/47/5 24/48/5
f 22/49/6 67/50/6 68/51/6
f 88/52/3 72/53/3 75/54/3
f 76/55/3 82/56/3 80/57/3
f 80/58/3 67/59/3 76/55/3
f 88/52/3 79/60/3 90/61/3
f 74/62/3 78/63/3 76/55/3
f 71/64/3 90/61/3 79/60/3
f 80/57/3 77/65/3 73/66/3
f 78/63/3 86/67/3 82/56/3
f 83/68/3 89/69/3 71/70/3
f 71/70/3 89/69/3 90/61/3
f 85/71/3 89/69/3 86/67/3
f 84/72/3 87/73/3 85/71/3
f 87/73/3 72/74/3 88/52/3
f 81/75/3 73/76/3 69/77/3
f 81/75/3 67/59/3 80/58/3
f 79/60/3 91/78/3 92/79/3
f 11/1/1 12/80/1 9/2/1
f 13/4/2 14/81/2 7/5/2
f 6/7/2 15/82/2 16/8/2
f 17/10/2 18/83/2 3/11/2
f 1/13/3 19/84/3 20/14/3
f 45/16/4 46/85/4 43/17/4
f 47/19/4 48/86/4 41/20/4
f 40/22/4 49/87/4 50/23/4
f 51/25/4 52/88/4 37/26/4
f 53/28/4 54/89/4 35/29/4
f 55/31/4 56/90/4 33/32/4
f 57/34/4 58/91/4 31/35/4
f 30/37/4 59/92/4 60/38/4
f 61/40/4 62/93/4 27/41/4
f 63/43/4 64/94/4 25/44/4
f 65/46/5 66/95/5 23/47/5
f 22/49/6 21/96/6 67/50/6
f 76/55/3 78/63/3 82/56/3
f 88/52/3 75/54/3 79/60/3
f 74/62/3 70/97/3 78/63/3
f 80/57/3 82/56/3 77/65/3
f 78/63/3 85/71/3 86/67/3
f 83/68/3 86/67/3 89/69/3
f 85/71/3 87/73/3 89/69/3
f 84/72/3 72/98/3 87/73/3
f 81/75/3 80/58/3 73/76/3
f 81/75/3 68/99/3 67/59/3
f 79/60/3 75/54/3 91/78/3
