# Blender v2.82 (sub 7) OBJ File: ''
# www.blender.org
o Cylinder
v 1.006296 0.614763 5.923802
v 0.402542 0.552601 5.923802
v 0.687645 0.099101 5.923802
v 0.262282 1.142403 5.923802
v -0.119730 0.671675 5.923802
v -0.636913 0.989404 5.923802
v -0.573230 0.386572 5.923802
v -1.164553 0.245390 5.923802
v -0.692305 -0.135700 5.923802
v -1.011554 -0.653805 5.923802
v -0.407201 -0.589200 5.923802
v -0.267540 -1.181445 5.923802
v 0.115070 -0.708275 5.923802
v 0.631655 -1.028446 5.923802
v 0.568571 -0.423171 5.923802
v 1.159295 -0.284432 5.923802
v -0.002330 -0.018300 5.923802
v 0.253429 1.144387 -9.950132
v 0.397224 0.555516 -9.950132
v -0.125939 0.670611 -9.950132
v -0.644575 0.984546 -9.950132
v -0.577256 0.382064 -9.950132
v -1.166536 0.236538 -9.950132
v -0.692351 -0.141099 -9.950132
v -1.006696 -0.661467 -9.950132
v -0.403803 -0.592416 -9.950132
v -0.258688 -1.183428 -9.950132
v 0.119359 -0.707512 -9.950132
v 0.639317 -1.023587 -9.950132
v 0.570676 -0.418964 -9.950132
v 1.161278 -0.275579 -9.950132
v 0.685771 0.104199 -9.950132
v 1.001438 0.622425 -9.950132
v -0.003290 -0.018450 -9.950132
vt 0.013424 0.312098
vt 0.268713 0.295240
vt 0.182302 0.503853
vt 0.285296 0.040227
vt 0.477327 0.208829
vt 0.669779 0.040227
vt 0.685940 0.295240
vt 0.941650 0.312098
vt 0.772351 0.503853
vt 0.941650 0.696582
vt 0.685940 0.712467
vt 0.669779 0.968453
vt 0.477327 0.798878
vt 0.285296 0.968453
vt 0.268713 0.712467
vt 0.013424 0.696582
vt 0.477327 0.503853
vt 0.013424 0.696335
vt 0.182303 0.504580
vt 0.268713 0.713193
vt 0.285295 0.968206
vt 0.477326 0.799604
vt 0.669779 0.968206
vt 0.685940 0.713193
vt 0.941650 0.696335
vt 0.772351 0.504580
vt 0.941650 0.311852
vt 0.685940 0.295967
vt 0.669779 0.039981
vt 0.477327 0.209556
vt 0.285296 0.039981
vt 0.268713 0.295967
vt 0.013424 0.311852
vt 0.477326 0.504580
vt 0.963268 0.000287
vt 0.997523 0.999238
vt 0.963268 0.999238
vt 0.963268 0.000287
vt 0.997523 0.999238
vt 0.963268 0.999238
vt 0.963268 0.000287
vt 0.997566 0.999238
vt 0.963364 0.999238
vt 0.963268 0.000287
vt 0.997566 0.999238
vt 0.963364 0.999238
vt 0.997566 0.999238
vt 0.963268 0.000287
vt 0.997523 0.000287
vt 0.997566 0.999238
vt 0.963268 0.000287
vt 0.997523 0.000287
vt 0.997523 0.999238
vt 0.963268 0.000287
vt 0.997523 0.000287
vt 0.997566 0.999238
vt 0.963268 0.000287
vt 0.997523 0.000287
vt 0.997566 0.999238
vt 0.963268 0.000287
vt 0.997523 0.000287
vt 0.997523 0.999238
vt 0.963268 0.000287
vt 0.997523 0.000287
vt 0.997566 0.999238
vt 0.963268 0.000287
vt 0.997523 0.000287
vt 0.997566 0.999238
vt 0.963268 0.000287
vt 0.997523 0.000287
vt 0.997566 0.999238
vt 0.963268 0.000287
vt 0.997523 0.000287
vt 0.997566 0.999238
vt 0.963268 0.000287
vt 0.997523 0.000287
vt 0.997566 0.999238
vt 0.963268 0.000287
vt 0.997523 0.000287
vt 0.997566 0.999238
vt 0.963268 0.000287
vt 0.997523 0.000287
vt 0.997523 0.000287
vt 0.997523 0.000287
vt 0.997523 0.000287
vt 0.997523 0.000287
vt 0.963364 0.999238
vt 0.963364 0.999238
vt 0.963268 0.999238
vt 0.963364 0.999238
vt 0.963364 0.999238
vt 0.963268 0.999238
vt 0.963364 0.999238
vt 0.963364 0.999238
vt 0.963364 0.999238
vt 0.963364 0.999238
vt 0.963364 0.999238
vt 0.963364 0.999238
vn 0.0000 0.0000 1.0000
vn -0.0000 0.0000 -1.0000
vn -0.6227 -0.7819 0.0307
vn -0.1100 0.9935 0.0306
vn -0.2396 0.9701 -0.0380
vn 0.8534 -0.5198 -0.0382
vn -0.7802 0.6248 0.0306
vn 0.9932 0.1127 0.0306
vn 0.9707 0.2370 -0.0381
vn -0.5191 -0.8539 -0.0381
vn 0.1137 -0.9930 0.0306
vn -0.8553 0.5167 -0.0380
vn -0.9933 -0.1110 0.0307
vn 0.2358 -0.9711 -0.0382
vn 0.5175 0.8549 -0.0381
vn 0.6238 0.7810 0.0306
vn 0.7827 -0.6217 0.0306
vn -0.9704 -0.2383 -0.0381
vn -0.9937 -0.1050 0.0381
vn 0.6305 0.7753 0.0380
vn 0.5232 0.8517 -0.0306
vn 0.2285 -0.9731 -0.0306
vn -0.1023 0.9940 0.0380
vn 0.7770 -0.6283 0.0381
vn 0.8503 -0.5254 -0.0307
vn -0.9728 -0.2294 -0.0306
vn -0.6275 -0.7776 0.0382
vn -0.2321 0.9722 -0.0306
vn -0.7759 0.6297 0.0381
vn -0.5266 -0.8496 -0.0306
vn 0.9724 0.2312 -0.0307
vn 0.9939 0.1036 0.0381
vn 0.1062 -0.9936 0.0382
vn -0.8510 0.5243 -0.0306
s 1
f 1/1/1 2/2/1 3/3/1
f 4/4/1 5/5/1 2/2/1
f 6/6/1 7/7/1 5/5/1
f 8/8/1 9/9/1 7/7/1
f 10/10/1 11/11/1 9/9/1
f 12/12/1 13/13/1 11/11/1
f 14/14/1 15/15/1 13/13/1
f 16/16/1 3/3/1 15/15/1
f 3/3/1 17/17/1 15/15/1
f 17/17/1 13/13/1 15/15/1
f 5/5/1 17/17/1 2/2/1
f 17/17/1 9/9/1 11/11/1
f 18/18/2 19/19/2 20/20/2
f 21/21/2 20/20/2 22/22/2
f 23/23/2 22/22/2 24/24/2
f 25/25/2 24/24/2 26/26/2
f 27/27/2 26/26/2 28/28/2
f 29/29/2 28/28/2 30/30/2
f 31/31/2 30/30/2 32/32/2
f 33/33/2 32/32/2 19/19/2
f 19/19/2 34/34/2 20/20/2
f 30/30/2 34/34/2 32/32/2
f 34/34/2 22/22/2 20/20/2
f 34/34/2 26/26/2 24/24/2
f 7/35/3 23/36/3 24/37/3
f 3/38/4 33/39/4 19/40/4
f 6/41/5 22/42/5 23/43/5
f 16/44/6 32/45/6 33/46/6
f 2/47/7 18/48/7 20/49/7
f 13/50/8 29/51/8 30/52/8
f 1/53/9 19/54/9 18/55/9
f 12/56/10 28/57/10 29/58/10
f 9/59/11 25/60/11 26/61/11
f 8/62/12 24/63/12 25/64/12
f 5/65/13 21/66/13 22/67/13
f 14/68/14 30/69/14 31/70/14
f 4/71/15 20/72/15 21/73/15
f 15/74/16 31/75/16 32/76/16
f 11/77/17 27/78/17 28/79/17
f 10/80/18 26/81/18 27/82/18
f 3/3/1 2/2/1 17/17/1
f 17/17/1 11/11/1 13/13/1
f 5/5/1 7/7/1 17/17/1
f 17/17/1 7/7/1 9/9/1
f 19/19/2 32/32/2 34/34/2
f 30/30/2 28/28/2 34/34/2
f 34/34/2 24/24/2 22/22/2
f 34/34/2 28/28/2 26/26/2
f 7/35/19 6/83/19 23/36/19
f 3/38/20 16/84/20 33/39/20
f 6/41/21 5/85/21 22/42/21
f 16/44/22 15/86/22 32/45/22
f 2/47/23 1/87/23 18/48/23
f 13/50/24 12/88/24 29/51/24
f 1/53/25 3/89/25 19/54/25
f 12/56/26 11/90/26 28/57/26
f 9/59/27 8/91/27 25/60/27
f 8/62/28 7/92/28 24/63/28
f 5/65/29 4/93/29 21/66/29
f 14/68/30 13/94/30 30/69/30
f 4/71/31 2/95/31 20/72/31
f 15/74/32 14/96/32 31/75/32
f 11/77/33 10/97/33 27/78/33
f 10/80/34 9/98/34 26/81/34
