# Blender v2.82 (sub 7) OBJ File: 'monsterlvl.blend'
# www.blender.org
mtllib lvl2Collision.mtl
o Collision_lvl1_Plane.012
v 94.068550 0.003100 475.076447
v 20.200403 0.000000 518.999268
v 94.068550 0.003100 519.066589
v 20.200403 0.000000 469.519623
v 56.076138 0.003100 519.066589
v 56.076138 0.003100 469.596039
v 94.068550 0.003100 431.083191
v 50.000000 0.003100 431.083191
v 94.068550 0.003100 393.751678
v 20.200403 0.003100 393.751678
v 94.068550 0.003100 356.401123
v 20.200403 0.003100 356.401123
v 94.068550 0.003100 318.890564
v 50.000000 0.003100 318.890564
v 94.068550 0.003100 275.076416
v 56.676365 0.003100 280.825439
v 20.200403 0.003100 318.890564
v 20.200403 0.003100 431.083191
v 94.068550 0.003100 234.355164
v 56.676365 0.003100 234.355164
v 20.200403 0.003100 280.825439
v 20.200403 0.003100 225.076416
v 20.200403 0.003100 150.076416
v -94.068550 0.003100 475.076447
v -20.201696 0.000000 518.999268
v -94.068550 0.003100 519.066589
v -20.201696 0.000000 469.519623
v -56.076138 0.003100 519.066589
v -56.076138 0.003100 469.596039
v -94.068550 0.003100 431.083191
v -50.000000 0.003100 431.083191
v -94.068550 0.003100 393.751678
v -20.201696 0.003100 393.751678
v -94.068550 0.003100 356.401123
v -20.201696 0.003100 356.401123
v -94.068550 0.003100 318.890564
v -50.000000 0.003100 318.890564
v -94.068550 0.003100 275.076416
v -56.676365 0.003100 280.825439
v -20.201696 0.003100 318.890564
v -20.201696 0.003100 431.083191
v -94.068550 0.003100 234.355164
v -56.676365 0.003100 234.355164
v -20.201696 0.003100 280.825439
v -20.201696 0.003100 225.076416
v -20.201696 0.003100 150.076416
v -20.201696 0.003100 117.938522
v 20.145973 -0.000323 117.833351
v 55.268200 52.481281 80.863632
v 95.484398 52.481281 80.751160
v 55.268200 -0.631616 -23.749933
v 95.484398 -0.631616 -23.749933
v 55.268200 -0.543579 -15.620968
v 55.268200 3.794459 -15.624945
v 55.268200 3.882496 -7.495979
v 55.268200 8.220534 -7.499956
v 55.268200 8.308571 0.629010
v 55.268200 12.646608 0.625034
v 55.268200 12.734646 8.754000
v 55.268200 17.072681 8.750023
v 55.268200 17.160719 16.878990
v 55.268200 21.498756 16.875011
v 55.268200 21.586794 25.003979
v 55.268200 25.924831 25.000000
v 55.268200 26.012867 33.128963
v 55.268200 30.350906 33.124989
v 55.268200 30.438942 41.253956
v 55.268200 34.776981 41.249977
v 55.268200 34.865017 49.378944
v 55.268200 39.203053 49.374969
v 55.268200 39.291088 57.503925
v 55.268200 43.629128 57.499958
v 55.268200 43.717163 65.628922
v 55.268200 48.055206 65.624947
v 55.268200 48.143242 80.867599
v 95.484398 48.143242 80.755135
v 95.484398 48.055206 65.624939
v 95.484398 43.717171 65.628906
v 95.484398 43.629135 57.499950
v 95.484398 39.291096 57.503925
v 95.484398 39.203060 49.374966
v 95.484398 34.865021 49.378941
v 95.484398 34.776985 41.249977
v 95.484398 30.438948 41.253952
v 95.484398 30.350912 33.124985
v 95.484398 26.012875 33.128963
v 95.484398 25.924837 24.999996
v 95.484398 21.586802 25.003973
v 95.484398 21.498762 16.875008
v 95.484398 17.160725 16.878983
v 95.484398 17.072687 8.750018
v 95.484398 12.734650 8.753996
v 95.484398 12.646611 0.625030
v 95.484398 8.308573 0.629007
v 95.484398 8.220534 -7.499959
v 95.484398 3.882497 -7.495981
v 95.484398 3.794459 -15.624947
v 95.484398 -0.543579 -15.620971
v 55.307644 52.481281 117.579887
v 95.484398 52.481281 117.579887
v 55.271584 56.866051 81.193817
v 41.874435 56.954086 81.193817
v 41.874435 56.954086 117.910072
v 55.311031 56.866051 117.910072
v 36.408035 0.000000 117.862106
v -195.354324 0.000000 117.862106
v -195.354324 0.000000 -244.230072
v 93.979202 0.000000 -244.230072
v -154.447693 0.000000 54.770191
v -119.999924 -0.001450 -4.779917
v 95.484398 0.000000 -142.852264
v -154.447693 0.000000 -180.024597
v -119.999924 -0.001450 -180.153687
v 3.914791 -0.000646 54.701431
v 3.914791 -0.000646 -4.694316
v -81.155518 -0.000646 -142.909790
v 93.979202 0.000000 -180.705505
v -81.155518 -0.000646 -206.613663
v 24.932640 -0.000323 -142.881042
v 45.844807 -0.000323 -206.584900
v 50.549423 -0.000161 -180.465881
v 96.174919 0.000000 -23.682150
v 36.408035 0.000000 -23.706707
vt 1.000000 0.000000
vt 1.000000 1.000000
vt 1.000000 1.000000
vt 1.000000 1.000000
vt 1.000000 1.000000
vt 1.000000 1.000000
vt 1.000000 1.000000
vt 1.000000 1.000000
vt 1.000000 1.000000
vt 1.000000 1.000000
vt 1.000000 1.000000
vt 0.000000 0.000000
vt 0.000000 0.000000
vt 0.000000 0.000000
vt 1.000000 1.000000
vt 1.000000 1.000000
vt 1.000000 1.000000
vt 1.000000 1.000000
vt 1.000000 1.000000
vt 1.000000 1.000000
vt 1.000000 1.000000
vt 1.000000 1.000000
vt 1.000000 1.000000
vt 1.000000 1.000000
vt 1.000000 1.000000
vt 1.000000 1.000000
vt 1.000000 1.000000
vt 0.500000 1.000000
vt 0.750000 0.000000
vt 0.500000 0.000000
vt 1.000000 1.000000
vt 1.000000 0.000000
vt 1.000000 1.000000
vt 1.000000 1.000000
vt 1.000000 1.000000
vt 1.000000 1.000000
vt 1.000000 1.000000
vt 1.000000 1.000000
vt 0.000000 0.000000
vt 0.000000 0.000000
vt 0.000000 0.000000
vt 1.000000 1.000000
vt 1.000000 1.000000
vt 1.000000 1.000000
vt 1.000000 0.106481
vt 0.000000 0.111111
vt 0.000000 0.106481
vt 1.000000 0.004630
vt 0.000000 0.009259
vt 0.000000 0.004630
vt 1.000000 0.013889
vt 0.000000 0.018519
vt 0.000000 0.013889
vt 0.000000 0.023148
vt 1.000000 0.027778
vt 0.000000 0.027778
vt 1.000000 0.032407
vt 0.000000 0.037037
vt 0.000000 0.032407
vt 1.000000 0.041667
vt 0.000000 0.046296
vt 0.000000 0.041667
vt 0.000000 0.050926
vt 1.000000 0.055556
vt 0.000000 0.055556
vt 0.000000 0.060185
vt 1.000000 0.064815
vt 0.000000 0.064815
vt 1.000000 0.069444
vt 0.000000 0.074074
vt 0.000000 0.069444
vt 1.000000 0.078704
vt 0.000000 0.083333
vt 0.000000 0.078704
vt 1.000000 0.087963
vt 0.000000 0.092593
vt 0.000000 0.087963
vt 0.000000 0.097222
vt 1.000000 0.101852
vt 0.000000 0.101852
vt 0.000000 0.000000
vt 1.000000 0.000000
vt 1.000000 0.000000
vt 1.000000 0.097222
vt 0.000000 0.101852
vt 0.000000 0.097222
vt 0.958319 0.937253
vt 1.000000 0.937253
vt 0.958319 1.000000
vt 0.958319 0.000000
vt 1.000000 0.500000
vt 0.958319 0.500000
vt 0.251486 0.937253
vt 0.625743 0.937253
vt 0.251486 1.000000
vt 1.000000 0.582816
vt 0.958319 0.582816
vt 0.000000 0.582816
vt 0.251486 0.874506
vt 0.000000 0.874506
vt 0.958319 0.745216
vt 1.000000 0.745215
vt 1.000000 0.874506
vt 0.625743 0.582816
vt 0.833274 0.874506
vt 0.625743 0.874506
vt 0.833274 0.000000
vt 0.625743 0.500000
vt 0.625743 0.000000
vt 0.833274 0.937253
vt 0.625743 1.000000
vt 0.916637 0.582816
vt 0.916637 0.874506
vt 0.916637 0.000000
vt 0.833274 0.500000
vt 0.916637 1.000000
vt 0.833274 1.000000
vt 0.916637 0.937253
vt 1.000000 0.582816
vt 1.000000 0.000000
vt 1.000000 1.000000
vt 1.000000 1.000000
vt 0.000000 0.000000
vt 0.750000 1.000000
vt 1.000000 0.000000
vt 1.000000 1.000000
vt 1.000000 1.000000
vt 0.000000 0.000000
vt 1.000000 1.000000
vt 1.000000 0.111111
vt 1.000000 0.009259
vt 1.000000 0.018519
vt 1.000000 0.023148
vt 1.000000 0.037037
vt 1.000000 0.046296
vt 1.000000 0.050926
vt 1.000000 0.060185
vt 1.000000 0.074074
vt 1.000000 0.083333
vt 1.000000 0.092593
vt 1.000000 0.097222
vt 0.000000 0.000000
vt 1.000000 0.101852
vt 0.251486 0.582816
vt 0.833274 0.582816
vn 0.0000 1.0000 0.0000
vn -0.0001 1.0000 0.0000
vn 0.0000 1.0000 0.0001
vn 0.0001 1.0000 0.0000
vn -0.0000 0.9999 -0.0108
vn -0.0000 1.0000 -0.0058
vn 0.0066 1.0000 0.0000
vn 0.0001 1.0000 -0.0001
vn 0.0000 1.0000 -0.0001
usemtl None
s off
f 5/1/1 1/2/1 6/3/1
f 6/3/1 7/4/1 8/5/1
f 9/6/1 12/7/1 10/8/1
f 13/9/1 16/10/1 14/11/1
f 15/12/1 20/13/1 16/14/1
f 8/5/2 4/15/2 6/3/2
f 14/11/1 21/16/1 17/17/1
f 18/18/1 33/19/1 41/20/1
f 12/7/1 40/21/1 35/22/1
f 21/16/1 45/23/1 44/24/1
f 22/25/1 46/26/1 45/23/1
f 18/18/3 27/27/3 4/15/3
f 4/28/1 25/29/1 2/30/1
f 21/16/1 40/21/1 17/17/1
f 12/7/1 33/19/1 10/8/1
f 24/31/1 28/32/1 29/33/1
f 29/33/1 30/34/1 24/31/1
f 35/22/1 32/35/1 33/19/1
f 39/36/1 36/37/1 37/38/1
f 38/39/1 43/40/1 42/41/1
f 27/27/4 31/42/4 29/33/4
f 37/38/1 44/24/1 39/36/1
f 23/43/1 47/44/1 46/26/1
f 98/45/5 51/46/5 53/47/5
f 76/48/6 74/49/6 75/50/6
f 78/51/5 72/52/5 73/53/5
f 71/54/5 81/55/5 70/56/5
f 82/57/5 68/58/5 69/59/5
f 84/60/5 66/61/5 67/62/5
f 65/63/5 87/64/5 64/65/5
f 63/66/5 89/67/5 62/68/5
f 90/69/5 60/70/5 61/71/5
f 92/72/5 58/73/5 59/74/5
f 94/75/5 56/76/5 57/77/5
f 55/78/5 97/79/5 54/80/5
f 49/81/1 100/82/1 50/83/1
f 103/84/7 101/85/7 102/86/7
f 121/87/1 117/88/1 108/89/1
f 48/90/1 105/91/1 114/92/1
f 112/93/1 113/94/1 107/95/1
f 114/92/1 123/96/1 115/97/1
f 106/98/1 112/99/1 107/100/1
f 119/101/1 122/102/1 111/103/1
f 110/104/1 116/105/1 113/106/1
f 47/107/1 109/108/1 106/109/1
f 113/94/1 118/110/1 107/111/1
f 113/106/1 116/105/1 118/110/1
f 115/112/1 119/113/1 116/105/1
f 47/107/4 48/114/4 114/115/4
f 118/110/1 108/116/1 107/117/1
f 120/118/1 121/87/1 108/116/1
f 123/96/1 119/101/1 115/97/1
f 123/96/1 114/92/1 105/119/1
f 5/1/1 3/120/1 1/2/1
f 6/3/1 1/2/1 7/4/1
f 9/6/1 11/121/1 12/7/1
f 13/9/1 15/122/1 16/10/1
f 15/12/1 19/123/1 20/13/1
f 8/5/3 18/18/3 4/15/3
f 14/11/1 16/10/1 21/16/1
f 18/18/1 10/8/1 33/19/1
f 12/7/1 17/17/1 40/21/1
f 21/16/1 22/25/1 45/23/1
f 22/25/1 23/43/1 46/26/1
f 18/18/3 41/20/3 27/27/3
f 4/28/1 27/124/1 25/29/1
f 21/16/1 44/24/1 40/21/1
f 12/7/1 35/22/1 33/19/1
f 24/31/1 26/125/1 28/32/1
f 29/33/1 31/42/1 30/34/1
f 35/22/1 34/126/1 32/35/1
f 39/36/1 38/127/1 36/37/1
f 38/39/1 39/128/1 43/40/1
f 27/27/3 41/20/3 31/42/3
f 37/38/1 40/21/1 44/24/1
f 23/43/8 48/129/8 47/44/8
f 98/45/5 52/130/5 51/46/5
f 76/48/6 77/131/6 74/49/6
f 78/51/5 79/132/5 72/52/5
f 71/54/5 80/133/5 81/55/5
f 82/57/5 83/134/5 68/58/5
f 84/60/5 85/135/5 66/61/5
f 65/63/5 86/136/5 87/64/5
f 63/66/5 88/137/5 89/67/5
f 90/69/5 91/138/5 60/70/5
f 92/72/5 93/139/5 58/73/5
f 94/75/5 95/140/5 56/76/5
f 55/78/5 96/141/5 97/79/5
f 49/81/1 99/142/1 100/82/1
f 103/84/7 104/143/7 101/85/7
f 106/98/1 109/144/1 112/99/1
f 110/104/1 115/145/1 116/105/1
f 47/107/9 114/115/9 109/108/9
f 118/110/1 120/118/1 108/116/1
f 123/96/1 122/102/1 119/101/1
