# Blender v2.82 (sub 7) OBJ File: 'CHEESE.blend'
# www.blender.org
o Cube_Cube.001
v 0.148647 0.515952 1.551874
v -0.228996 2.270771 0.218458
v -1.494638 0.437822 0.414547
v 1.198638 -0.364887 0.095288
v 0.820995 1.389932 -1.238128
v -0.444646 -0.443017 -1.042039
v -1.940569 -0.499424 0.628111
v 0.010516 -0.499424 2.045634
v -0.523047 -0.499424 -1.322974
v 1.428039 -0.499424 0.094548
vt 0.936958 0.393989
vt 0.603965 0.227493
vt 0.936958 0.060996
vt 0.692937 0.350022
vt 0.024211 0.948148
vt 0.024211 0.350022
vt 0.936954 0.393990
vt 0.603961 0.227494
vt 0.936954 0.060997
vt 0.024211 0.308329
vt 0.622337 0.977054
vt 0.024211 0.977054
vt 0.622374 0.948084
vt 0.024247 0.349958
vt 0.622374 0.349958
vt 0.805146 0.706715
vt 0.972462 0.874030
vt 0.805146 0.874030
vt 0.692937 0.948149
vt 0.622337 0.308328
vt 0.024247 0.948084
vt 0.972462 0.706715
vn -0.5250 0.4404 0.7283
vn -0.6356 0.3662 -0.6796
vn 0.5250 -0.4404 -0.7283
vn 0.8342 0.4361 0.3376
vn -0.2220 -0.8969 0.3824
vn 0.0000 1.0000 0.0000
s off
f 1/1/1 2/2/1 3/3/1
f 2/4/2 6/5/2 3/6/2
f 6/7/3 5/8/3 4/9/3
f 5/10/4 1/11/4 4/12/4
f 6/13/5 1/14/5 3/15/5
f 7/16/6 10/17/6 9/18/6
f 2/4/2 5/19/2 6/5/2
f 5/10/4 2/20/4 1/11/4
f 6/13/5 4/21/5 1/14/5
f 7/16/6 8/22/6 10/17/6
