# Blender v2.82 (sub 7) OBJ File: ''
# www.blender.org
o Chest
v -14.296356 5.856885 1.499999
v -12.810433 9.035209 1.995005
v -14.296356 9.366644 4.831434
v -22.948092 10.596617 -0.000001
v -22.948092 10.596617 1.995005
v -19.916046 10.226540 1.500000
v -19.916046 10.226540 -0.000001
v -16.544231 10.979637 2.105484
v -16.544231 9.366644 4.831436
v -14.296356 10.979637 2.105484
v -14.296356 5.856885 4.968719
v -16.544231 5.042004 4.968719
v -19.916046 6.088739 4.968719
v -19.916046 2.987802 4.042438
v -16.544231 3.969340 4.042437
v -16.884001 10.596617 1.995005
v -16.883999 8.861760 4.500000
v -22.948093 8.861760 4.500000
v -19.916046 8.861760 4.500000
v -12.810433 9.035209 -0.000001
v -14.296356 10.979637 -0.000001
v -16.544231 2.176937 4.982491
v -23.287861 2.176937 4.982491
v -26.302275 0.031679 5.284986
v -13.529818 0.031679 5.284986
v -25.535736 2.176936 0.000000
v -26.302275 0.031678 0.000000
v -25.535736 2.176937 4.968720
v -14.296356 2.176937 4.968720
v -25.535736 5.856885 1.499999
v -25.535736 9.366644 4.831434
v -27.021660 9.035209 1.995005
v -23.287861 3.969340 4.042437
v -23.287861 10.979637 2.105484
v -25.535736 10.979637 2.105484
v -23.287861 9.366644 4.831436
v -25.535736 5.856885 4.968719
v -23.287861 5.042004 4.968719
v -25.535736 5.856885 0.000000
v -27.021660 9.035209 -0.000001
v -25.535736 10.979637 -0.000001
v -16.884001 10.596617 -0.000001
v -13.529818 0.031678 0.000000
v -14.296356 2.176936 0.000000
v -14.296356 5.856885 0.000000
v -21.316439 10.253798 4.760872
v -21.316439 8.760183 3.296392
v -21.316439 7.302835 4.782732
v -18.515654 10.253798 4.760872
v -18.515654 7.302906 4.789937
v -21.316439 10.217461 1.802848
v -18.515654 10.217461 1.802848
v -23.287861 10.979637 -0.000001
v -16.544231 10.979637 -0.000001
v -14.296356 5.856885 -1.500000
v -14.296356 9.366644 -4.831435
v -12.810433 9.035209 -1.995007
v -19.916046 10.226540 -1.500000
v -22.948092 10.596617 -1.995007
v -16.544231 10.979637 -2.105484
v -14.296356 10.979637 -2.105484
v -16.544231 9.366644 -4.831436
v -14.296356 5.856884 -4.968719
v -16.544231 5.042003 -4.968720
v -19.916046 6.088738 -4.968719
v -16.544231 3.969340 -4.042438
v -19.916046 2.987801 -4.042438
v -16.884001 10.596617 -1.995007
v -16.883999 8.861760 -4.500000
v -22.948093 8.861760 -4.500000
v -19.916046 8.861760 -4.500000
v -16.544231 2.176936 -4.982491
v -13.529818 0.031678 -5.284986
v -26.302275 0.031678 -5.284986
v -23.287861 2.176936 -4.982491
v -25.535736 2.176936 -4.968720
v -14.296356 2.176936 -4.968720
v -25.535736 5.856885 -1.500000
v -27.021660 9.035209 -1.995007
v -25.535736 9.366644 -4.831435
v -23.287861 3.969340 -4.042438
v -23.287861 10.979637 -2.105484
v -23.287861 9.366644 -4.831436
v -25.535736 10.979637 -2.105484
v -25.535736 5.856884 -4.968719
v -23.287861 5.042003 -4.968720
vt 0.486924 0.435098
vt 0.371832 0.430584
vt 0.355689 0.534695
vt 0.766249 0.414273
vt 0.877306 0.356704
vt 0.877306 0.412044
vt 0.235937 0.641835
vt 0.154300 0.724282
vt 0.170755 0.625803
vt 0.172889 0.842104
vt 0.222512 0.725846
vt 0.257233 0.854776
vt 0.877306 0.143192
vt 0.877306 0.035339
vt 0.961696 0.057730
vt 0.251561 0.646011
vt 0.240336 0.732773
vt 0.764280 0.342612
vt 0.769351 0.233058
vt 0.985261 0.233058
vt 0.877306 0.236618
vt 0.292442 0.442683
vt 0.288823 0.366437
vt 0.376406 0.365402
vt 0.985624 0.092288
vt 0.484528 0.078365
vt 0.158727 0.150699
vt 0.259372 0.078365
vt 0.982748 0.000528
vt 0.741874 0.069574
vt 0.559581 0.078299
vt 0.706905 0.002028
vt 0.184318 0.078299
vt 0.488847 0.435723
vt 0.356445 0.533764
vt 0.373816 0.429851
vt 0.792917 0.057729
vt 0.238465 0.642487
vt 0.151896 0.728893
vt 0.218988 0.728596
vt 0.169830 0.844339
vt 0.768989 0.092288
vt 0.254857 0.647270
vt 0.237025 0.736259
vt 0.252605 0.857472
vt 0.053331 0.860761
vt 0.020058 0.994543
vt 0.001828 0.868191
vt 0.294289 0.441011
vt 0.291571 0.364727
vt 0.379159 0.364728
vt 0.771864 0.000528
vt 0.054176 0.859347
vt 0.194862 0.969827
vt 0.585173 0.150699
vt 0.274502 0.956280
vt 0.990332 0.342612
vt 0.190659 0.969929
vt 0.988362 0.414273
vt 0.268877 0.957164
vt 0.002026 0.069574
vt 0.021060 0.995957
vt 0.001708 0.867235
vt 0.309592 0.841613
vt 0.384874 0.916895
vt 0.309592 0.992177
vt 0.993447 0.995875
vt 0.469435 0.471863
vt 0.993447 0.471864
vt 0.460156 0.841613
vt 0.309592 0.691049
vt 0.460156 0.691049
vt 0.309591 0.540484
vt 0.469435 0.995875
vt 0.262666 0.577552
vt 0.166107 0.623760
vt 0.585173 0.327154
vt 0.189997 0.559907
vt 0.259423 0.582232
vt 0.486924 0.435098
vt 0.355689 0.534695
vt 0.371832 0.430584
vt 0.877306 0.356704
vt 0.764280 0.342612
vt 0.235937 0.641835
vt 0.154300 0.724282
vt 0.222512 0.725846
vt 0.172889 0.842104
vt 0.877306 0.143192
vt 0.961696 0.057730
vt 0.877306 0.035339
vt 0.251561 0.646011
vt 0.240336 0.732773
vt 0.257233 0.854776
vt 0.769351 0.233058
vt 0.985261 0.233058
vt 0.877306 0.236618
vt 0.292442 0.442683
vt 0.158727 0.150699
vt 0.484528 0.078365
vt 0.259372 0.078365
vt 0.982748 0.000528
vt 0.559581 0.078299
vt 0.184318 0.078299
vt 0.985624 0.092288
vt 0.488847 0.435723
vt 0.373816 0.429851
vt 0.356445 0.533764
vt 0.792917 0.057729
vt 0.238465 0.642487
vt 0.151896 0.728893
vt 0.166107 0.623760
vt 0.169830 0.844339
vt 0.218988 0.728596
vt 0.252605 0.857472
vt 0.768989 0.092288
vt 0.254857 0.647270
vt 0.237025 0.736259
vt 0.053331 0.860761
vt 0.294289 0.441011
vt 0.771864 0.000528
vt 0.054176 0.859347
vt 0.194862 0.969827
vt 0.585173 0.150699
vt 0.990332 0.342612
vt 0.190659 0.969929
vt 0.036995 0.002028
vt 0.278970 0.583740
vt 0.170755 0.625803
vt 0.495037 0.384379
vt 0.188177 0.553989
vt 0.497559 0.385104
vt 0.158727 0.327154
vt 0.274294 0.588066
vt 0.274502 0.956280
vt 0.268877 0.957164
vn 0.7762 -0.4341 0.4573
vn 0.1212 0.9926 0.0000
vn 0.0000 0.8606 0.5092
vn -0.0081 0.0339 0.9994
vn -0.0042 0.0364 0.9993
vn -0.0115 0.0317 0.9994
vn 0.0830 -0.2852 0.9549
vn -0.7673 0.5497 0.3303
vn -0.8603 0.4220 0.2861
vn -0.7505 0.5687 0.3365
vn -0.7148 0.0222 0.6990
vn 0.1898 0.8072 0.5590
vn 0.0000 0.9102 0.4141
vn 0.7585 0.5608 0.3318
vn 0.7946 0.6072 0.0000
vn 0.0213 0.1439 0.9894
vn 0.0217 0.1435 0.9894
vn 0.0388 0.1251 0.9914
vn -0.0048 0.1462 0.9892
vn 0.0030 0.1437 0.9896
vn 0.0048 0.1462 0.9892
vn -0.1340 0.4603 0.8776
vn -0.9417 0.3365 -0.0000
vn 0.0061 0.1480 0.9890
vn -1.0000 0.0000 0.0000
vn -0.7762 -0.4341 0.4573
vn -0.0830 -0.2852 0.9549
vn 0.0081 0.0339 0.9994
vn 0.0042 0.0364 0.9993
vn -0.0000 0.0391 0.9992
vn 0.1988 -0.6405 0.7417
vn 0.7673 0.5497 0.3303
vn 0.8603 0.4220 0.2861
vn 0.8715 0.4032 0.2792
vn 0.7148 0.0222 0.6990
vn -0.7585 0.5608 0.3318
vn -0.7946 0.6072 0.0000
vn -0.0213 0.1439 0.9894
vn -0.0217 0.1435 0.9894
vn 0.0000 0.1667 0.9860
vn -0.1988 -0.6405 0.7417
vn 0.1340 0.4603 0.8776
vn 1.0000 0.0000 0.0000
vn -0.0030 0.1437 0.9896
vn -0.0061 0.1480 0.9890
vn 0.0035 0.0028 1.0000
vn 0.0021 0.0017 1.0000
vn 0.0061 0.0048 1.0000
vn -0.1898 0.8072 0.5590
vn -0.1212 0.9926 0.0000
vn 0.0000 0.7572 0.6532
vn -0.0021 0.0017 1.0000
vn -0.0035 0.0028 1.0000
vn -0.0061 0.0048 1.0000
vn 0.9417 0.3365 -0.0000
vn -0.0012 0.0086 1.0000
vn -0.0013 0.0087 1.0000
vn -0.0026 0.0098 0.9999
vn 0.0000 0.9999 -0.0123
vn 0.0000 0.0074 1.0000
vn 0.0000 1.0000 0.0000
vn 0.7481 0.6636 0.0000
vn -0.9059 -0.4235 0.0000
vn 0.0000 -1.0000 0.0000
vn -0.7481 0.6636 0.0000
vn 0.9059 -0.4235 0.0000
vn 0.7762 -0.4341 -0.4573
vn 0.0000 0.8606 -0.5092
vn -0.0081 0.0339 -0.9994
vn -0.0042 0.0364 -0.9993
vn 0.0000 0.0391 -0.9992
vn 0.0830 -0.2852 -0.9549
vn -0.7673 0.5496 -0.3303
vn -0.8603 0.4220 -0.2861
vn -0.8715 0.4032 -0.2792
vn -0.7148 0.0222 -0.6990
vn 0.1898 0.8072 -0.5590
vn 0.0000 0.9102 -0.4141
vn 0.7585 0.5608 -0.3318
vn 0.0213 0.1439 -0.9894
vn 0.0217 0.1435 -0.9894
vn 0.0000 0.1667 -0.9860
vn 0.0030 0.1437 -0.9896
vn -0.0048 0.1462 -0.9892
vn 0.0048 0.1462 -0.9892
vn -0.1340 0.4603 -0.8776
vn 0.0061 0.1480 -0.9890
vn -0.7762 -0.4341 -0.4573
vn -0.0830 -0.2852 -0.9549
vn 0.0081 0.0339 -0.9994
vn 0.0042 0.0364 -0.9993
vn 0.0115 0.0317 -0.9994
vn 0.1988 -0.6405 -0.7417
vn 0.7673 0.5497 -0.3303
vn 0.8603 0.4220 -0.2861
vn 0.7505 0.5687 -0.3365
vn 0.7148 0.0222 -0.6990
vn -0.7585 0.5608 -0.3318
vn -0.0213 0.1439 -0.9894
vn -0.0217 0.1435 -0.9894
vn -0.0388 0.1251 -0.9914
vn -0.1988 -0.6405 -0.7417
vn 0.1340 0.4603 -0.8776
vn -0.0030 0.1437 -0.9896
vn -0.0061 0.1480 -0.9890
vn 0.0035 0.0028 -1.0000
vn 0.0021 0.0017 -1.0000
vn 0.0000 0.0000 -1.0000
vn -0.1898 0.8072 -0.5590
vn 0.0000 0.7572 -0.6532
vn -0.0021 0.0017 -1.0000
vn -0.0035 0.0028 -1.0000
vn -0.8715 0.4032 0.2792
vn 0.0115 0.0317 0.9994
vn 0.7505 0.5687 0.3365
vn -0.0388 0.1251 0.9914
vn 0.0000 0.0000 1.0000
vn -0.0115 0.0317 -0.9994
vn -0.7505 0.5687 -0.3365
vn 0.0388 0.1251 -0.9914
vn 0.8715 0.4032 -0.2792
vn 0.0061 0.0048 -1.0000
vn -0.0061 0.0048 -1.0000
s 1
f 1/1/1 2/2/1 3/3/1
f 4/4/2 6/5/2 7/6/2
f 8/7/3 3/8/3 10/9/3
f 11/10/4 9/11/5 12/12/6
f 13/13/7 14/14/7 15/15/7
f 16/16/8 9/11/9 8/7/10
f 17/17/11 12/12/11 9/11/11
f 6/5/12 5/18/12 18/19/12
f 17/20/13 6/5/13 19/21/13
f 3/3/14 2/2/14 10/22/14
f 21/23/15 2/2/15 20/24/15
f 17/20/16 13/13/17 12/25/18
f 23/26/19 25/27/20 22/28/21
f 15/15/22 14/14/22 22/29/22
f 27/30/23 28/31/23 26/32/23
f 25/27/20 29/33/24 22/28/21
f 15/15/25 22/29/25 12/25/25
f 30/34/26 31/35/26 32/36/26
f 33/37/27 14/14/27 13/13/27
f 34/38/3 31/39/3 36/40/3
f 37/41/28 36/40/29 31/39/30
f 13/13/31 38/42/31 33/37/31
f 5/43/32 36/40/33 18/44/34
f 18/44/35 36/40/35 38/45/35
f 31/39/25 30/46/25 37/41/25
f 26/47/25 30/46/25 39/48/25
f 18/19/13 19/21/13 6/5/13
f 31/35/36 35/49/36 32/36/36
f 32/36/37 41/50/37 40/51/37
f 18/19/38 13/13/39 19/21/40
f 15/15/41 12/25/41 13/13/41
f 33/37/42 23/52/42 14/14/42
f 1/53/43 11/10/43 29/54/43
f 24/55/44 23/26/19 28/31/45
f 33/37/43 38/42/43 23/52/43
f 3/8/43 11/10/43 1/53/43
f 29/54/46 12/12/47 22/56/48
f 6/5/49 17/20/49 16/57/49
f 30/46/25 28/58/25 37/41/25
f 42/59/50 6/5/50 16/57/50
f 22/29/51 14/14/51 23/52/51
f 38/45/52 28/58/53 23/60/54
f 43/61/55 29/33/55 25/27/55
f 1/53/43 44/62/43 45/63/43
f 46/64/25 47/65/25 48/66/25
f 49/67/56 48/68/57 50/69/58
f 51/70/59 49/71/59 52/72/59
f 46/64/25 51/70/25 47/65/25
f 52/72/43 49/71/43 50/73/43
f 49/67/56 46/74/60 48/68/57
f 51/70/59 46/64/59 49/71/59
f 53/75/61 35/76/61 34/38/61
f 5/43/62 53/75/62 34/38/62
f 40/51/63 30/34/63 32/36/63
f 27/77/64 25/27/64 24/55/64
f 21/78/61 8/7/61 10/9/61
f 54/79/65 16/16/65 8/7/65
f 1/1/66 20/24/66 2/2/66
f 55/80/67 56/81/67 57/82/67
f 4/4/2 58/83/2 59/84/2
f 60/85/68 56/86/68 62/87/68
f 63/88/69 62/87/70 56/86/71
f 65/89/72 66/90/72 67/91/72
f 68/92/73 62/87/74 69/93/75
f 69/93/76 62/87/76 64/94/76
f 58/83/77 70/95/77 59/84/77
f 69/96/78 71/97/78 58/83/78
f 56/81/79 61/98/79 57/82/79
f 57/82/15 21/23/15 20/24/15
f 69/96/80 65/89/81 71/97/82
f 73/99/83 75/100/84 72/101/85
f 66/90/86 72/102/86 67/91/86
f 76/103/23 27/30/23 26/32/23
f 73/99/83 72/101/85 77/104/87
f 66/90/25 64/105/25 72/102/25
f 78/106/88 79/107/88 80/108/88
f 81/109/89 65/89/89 67/91/89
f 82/110/68 80/111/68 84/112/68
f 85/113/90 83/114/91 86/115/92
f 65/89/93 81/109/93 86/116/93
f 59/117/94 83/114/95 82/110/96
f 70/118/97 86/115/97 83/114/97
f 80/111/25 85/113/25 78/119/25
f 78/119/25 26/47/25 39/48/25
f 70/95/78 58/83/78 71/97/78
f 80/108/98 79/107/98 84/120/98
f 41/50/37 79/107/37 40/51/37
f 70/95/99 65/89/100 86/116/101
f 66/90/102 65/89/102 64/105/102
f 81/109/103 67/91/103 75/121/103
f 55/122/43 77/123/43 63/88/43
f 74/124/104 76/103/105 75/100/84
f 81/109/43 75/121/43 86/116/43
f 56/86/43 55/122/43 63/88/43
f 77/123/106 64/94/107 63/88/108
f 58/83/109 68/125/109 69/96/109
f 78/119/25 85/113/25 76/126/25
f 42/59/50 58/83/50 7/6/50
f 72/102/110 75/121/110 67/91/110
f 86/115/111 76/126/112 85/113/108
f 43/61/55 77/104/55 44/127/55
f 44/62/43 55/122/43 45/63/43
f 84/112/61 53/75/61 82/110/61
f 59/117/62 53/75/62 4/128/62
f 78/106/63 40/51/63 79/107/63
f 73/99/64 27/77/64 74/124/64
f 60/85/61 21/78/61 61/129/61
f 68/92/65 54/79/65 60/85/65
f 55/80/66 20/24/66 45/130/66
f 4/4/2 5/18/2 6/5/2
f 8/7/3 9/11/3 3/8/3
f 11/10/4 3/8/30 9/11/5
f 16/16/8 17/17/113 9/11/9
f 21/23/15 10/22/15 2/2/15
f 17/20/16 19/21/40 13/13/17
f 23/26/19 24/55/44 25/27/20
f 27/30/23 24/55/23 28/31/23
f 34/38/3 35/76/3 31/39/3
f 37/41/28 38/45/114 36/40/29
f 5/43/32 34/38/115 36/40/33
f 26/47/25 28/58/25 30/46/25
f 32/36/37 35/49/37 41/50/37
f 18/19/38 38/42/116 13/13/39
f 29/54/46 11/10/117 12/12/47
f 42/59/50 7/6/50 6/5/50
f 38/45/52 37/41/117 28/58/53
f 43/61/55 44/127/55 29/33/55
f 1/53/43 29/54/43 44/62/43
f 53/75/61 41/131/61 35/76/61
f 5/43/62 4/128/62 53/75/62
f 40/51/63 39/132/63 30/34/63
f 27/77/64 43/133/64 25/27/64
f 21/78/61 54/79/61 8/7/61
f 54/79/65 42/134/65 16/16/65
f 1/1/66 45/130/66 20/24/66
f 4/4/2 7/6/2 58/83/2
f 60/85/68 61/129/68 56/86/68
f 63/88/69 64/94/118 62/87/70
f 68/92/73 60/85/119 62/87/74
f 57/82/15 61/98/15 21/23/15
f 69/96/80 64/105/120 65/89/81
f 73/99/83 74/124/104 75/100/84
f 76/103/23 74/124/23 27/30/23
f 82/110/68 83/114/68 80/111/68
f 85/113/90 80/111/71 83/114/91
f 59/117/94 70/118/121 83/114/95
f 78/119/25 76/126/25 26/47/25
f 41/50/37 84/120/37 79/107/37
f 70/95/99 71/97/82 65/89/100
f 77/123/106 72/135/122 64/94/107
f 42/59/50 68/125/50 58/83/50
f 86/115/111 75/136/123 76/126/112
f 43/61/55 73/99/55 77/104/55
f 44/62/43 77/123/43 55/122/43
f 84/112/61 41/131/61 53/75/61
f 59/117/62 82/110/62 53/75/62
f 78/106/63 39/132/63 40/51/63
f 73/99/64 43/133/64 27/77/64
f 60/85/61 54/79/61 21/78/61
f 68/92/65 42/134/65 54/79/65
f 55/80/66 57/82/66 20/24/66
